Coordinates
version=1
nRows=19
nColumns=36
inDegrees=yes

Units are S.I. units (second, meters, Newtons, ...)
If the header above contains a line with 'inDegrees', this indicates whether rotational values are in degrees (yes) or radians (no).

endheader
time	pelvis_tilt	pelvis_list	pelvis_rotation	pelvis_tx	pelvis_ty	pelvis_tz	hip_flexion_r	hip_adduction_r	hip_rotation_r	knee_angle_r	knee_angle_r_beta	ankle_angle_r	subtalar_angle_r	mtp_angle_r	hip_flexion_l	hip_adduction_l	hip_rotation_l	knee_angle_l	knee_angle_l_beta	ankle_angle_l	subtalar_angle_l	mtp_angle_l	lumbar_extension	lumbar_bending	lumbar_rotation	arm_flex_r	arm_add_r	arm_rot_r	elbow_flex_r	pro_sup_r	arm_flex_l	arm_add_l	arm_rot_l	elbow_flex_l	pro_sup_l
      0.68000000	      1.26661312	      4.88579887	     -5.72741223	      0.73651502	      0.91707680	     -0.22476025	    -16.46050054	     -4.58190097	     -1.71932972	     31.49937256	      0.54976776	     -7.25741989	     -5.91859030	     -7.27313788	     18.87092772	      9.40865675	      1.43647222	     14.68468128	      0.25629604	     -5.30676321	    -12.67991779	     -7.27313788	     -3.07378300	     -5.56446006	      6.53597239	     -1.37024305	     -6.11358492	     -8.16273525	     44.45553631	    100.79621746	    -17.00565067	     -0.48104166	    -33.01340393	     26.54686743	     98.13576908
      0.69000000	      1.02529106	      5.13916997	     -5.75486337	      0.74957295	      0.91900651	     -0.22519298	    -14.24162916	     -4.89126205	     -0.94758663	     35.49426954	      0.61949187	    -11.19277694	     -8.48382634	     -7.28257600	     18.17338749	      9.81594769	      1.62604059	     14.60218260	      0.25485616	     -4.70596441	    -12.96027822	     -7.28257600	     -2.69588324	     -5.86994369	      6.16370980	     -2.00871222	     -5.67617143	     -8.62357984	     43.00083778	    100.79632165	    -16.68163567	     -0.49775997	    -32.97048559	     27.17006005	     98.34014999
      0.70000000	      1.29113981	      5.21407118	     -5.87495342	      0.76215436	      0.92137609	     -0.22570597	    -12.47991347	     -5.11902350	     -0.16541516	     39.46869303	      0.68885864	    -13.22647678	     -8.46344814	     -7.28389007	     16.77808758	     10.06679777	      1.76867989	     14.22057650	      0.24819588	     -4.12229808	    -12.92246497	     -7.28389007	     -3.07576734	     -5.94210063	      5.70778705	     -2.59522773	     -5.50573865	     -8.77231911	     42.27549997	    100.74385091	    -16.09903999	     -0.47230286	    -32.81249518	     27.57474125	     98.41533929
      0.71000000	      0.53604981	      5.80818579	     -6.17859397	      0.77480450	      0.92229458	     -0.22586244	     -9.19025454	     -5.86694464	      0.50719149	     43.83593807	      0.76508145	    -16.37531239	    -10.35552456	     -7.28836346	     16.44033861	     10.64736244	      1.44032038	     13.52036670	      0.23597491	     -3.34740864	    -12.52936454	     -7.28836346	     -1.98224624	     -6.59834172	      5.83993828	     -3.41330252	     -5.16938432	     -9.15244816	     40.56724494	    100.59448888	    -15.87398148	     -0.65515826	    -32.48301399	     28.56194142	     98.62098002
      0.72000000	      0.27048477	      6.03404501	     -6.52392229	      0.78689880	      0.92369855	     -0.22592269	     -6.52498473	     -6.11955752	      1.48746160	     47.73313799	      0.83310042	    -18.42873674	    -11.51913485	     -7.29209215	     15.53326412	     10.87336135	      1.08149003	     12.78332204	      0.22311106	     -2.58684816	    -12.02878685	     -7.29209215	     -1.63816493	     -6.81989975	      5.67927942	     -3.98786396	     -5.00028873	     -9.31035039	     39.41007149	    100.47079640	    -15.46693226	     -0.73427043	    -32.14065254	     29.33234610	     98.79267283
      0.73000000	      0.02360765	      6.19732999	     -6.88809092	      0.79865352	      0.92499963	     -0.22583412	     -3.84650287	     -6.22518853	      2.46954674	     51.41068038	      0.89728564	    -19.44504622	    -12.49177694	     -7.29511168	     14.59032557	     11.01430438	      0.71523791	     11.98900157	      0.20924755	     -1.86901352	    -11.40697012	     -7.29511168	     -1.37892910	     -6.97468360	      5.47080006	     -4.51132965	     -4.89206730	     -9.37614229	     38.34106427	    100.35036653	    -15.01688838	     -0.84548066	    -31.75148759	     30.11973322	     98.95180909
      0.74000000	     -0.23412560	      6.31205318	     -7.22073495	      0.81009622	      0.92616101	     -0.22569975	     -1.17487684	     -6.19942038	      3.39865888	     54.78093684	      0.95610772	    -19.44986169	    -13.45157876	     -7.29763877	     13.67062257	     11.10639900	      0.37029617	     11.18122636	      0.19514921	     -1.16721383	    -10.72734411	     -7.29763877	     -1.15369821	     -7.07743131	      5.20792259	     -4.97464901	     -4.84211264	     -9.36830772	     37.31096201	    100.24153714	    -14.49888347	     -1.01461102	    -31.31278251	     30.94746914	     99.10174059
      0.75000000	     -0.50055123	      6.36051996	     -7.50588206	      0.82133541	      0.92720521	     -0.22555358	      1.46708514	     -6.04043008	      4.23289991	     57.81742298	      1.00910440	    -18.52059035	    -14.42862316	     -7.30008749	     12.80853023	     11.13561885	      0.11674214	     10.47309477	      0.18278999	     -0.47380338	     -9.96450254	     -7.30008749	     -0.95346410	     -7.08561438	      4.87645724	     -5.40160891	     -4.83217433	     -9.28109847	     36.26680017	    100.14504779	    -13.98332722	     -1.21703776	    -30.79930524	     31.81097610	     99.24637915
      0.76000000	     -0.81500253	      6.34738163	     -7.64006687	      0.83242491	      0.92809564	     -0.22550969	      4.08138291	     -5.78529635	      4.84238593	     60.47325457	      1.05545740	    -16.68504906	    -15.12172182	     -7.30361259	     12.08448745	     11.11271018	     -0.14172796	      9.95421327	      0.17373380	      0.32528894	     -8.98125046	     -7.30361259	     -0.72183310	     -7.04591897	      4.39750585	     -5.79409960	     -4.86520140	     -9.02194212	     35.07259167	    100.05423044	    -13.50901089	     -1.52525346	    -30.09311140	     32.79400202	     99.39666936
      0.77000000	     -1.04674557	      6.25654589	     -7.73337892	      0.84337468	      0.92901560	     -0.22547553	      6.48817338	     -5.40480162	      5.48567766	     62.67995033	      1.09397151	    -13.63568258	    -14.54393864	     -7.31376764	     11.36600949	     11.00931279	     -0.55615067	      9.63686336	      0.16819500	      1.57006552	     -7.42936620	     -7.31376764	     -0.63863309	     -6.92213581	      3.62601512	     -5.96653085	     -5.03580832	     -8.12964543	     33.72082602	     99.97472004	    -13.13200133	     -1.90098095	    -29.03858610	     33.73013916	     99.44472862
      0.78000000	     -1.16059815	      6.07719627	     -7.72859576	      0.85418461	      0.93011789	     -0.22547147	      8.63543063	     -4.87304924	      5.97743611	     64.30428484	      1.12232149	    -11.78916571	    -15.63131576	     -7.31563751	     10.37666758	     10.91292580	     -0.30621779	      9.03912673	      0.15776252	      2.05652966	     -7.11872331	     -7.31563751	     -0.76953455	     -6.71240715	      2.98609686	     -6.43082953	     -5.06827094	     -8.14461230	     33.12418702	     99.92986205	    -12.36052894	     -2.24189179	    -28.71825556	     34.43713554	     99.50100386
      0.79000000	     -1.40187998	      5.94082360	     -7.53614218	      0.86496723	      0.93090358	     -0.22584533	     10.85103079	     -4.47428617	      6.22179074	     65.59782072	      1.14489795	     -9.04322563	    -15.38840348	     -7.32230046	      9.64356636	     10.87891304	     -0.09449088	      8.65432271	      0.15104643	      2.72458767	     -6.60312847	     -7.32230046	     -0.75759687	     -6.52324421	      2.06501763	     -6.72750059	     -5.12040334	     -8.12733681	     32.14621947	     99.88716388	    -11.87263903	     -2.68908810	    -27.68109046	     35.58146035	     99.53808198
      0.80000000	     -1.50649524	      5.72663594	     -7.33314048	      0.87574052	      0.93181096	     -0.22617364	     12.80395731	     -3.97293638	      6.45695947	     66.41368074	      1.15913740	     -6.97196273	    -15.87216926	     -7.32763756	      8.71998385	     10.79298993	      0.31932171	      8.22186062	      0.14349854	      3.23319720	     -6.31561461	     -7.32763756	     -0.92370556	     -6.26361232	      1.24819218	     -7.20979456	     -5.17902636	     -8.31953031	     31.60193045	     99.86079253	    -11.15522374	     -3.17318045	    -26.99151367	     36.41512971	     99.54498940
      0.81000000	     -1.62455163	      5.42659723	     -7.11102349	      0.88645770	      0.93268351	     -0.22654878	     14.67104299	     -3.34200362	      6.70154750	     66.77819817	      1.16549943	     -5.40067696	    -16.79840874	     -7.32934746	      7.80825956	     10.61270808	      0.65222134	      7.76951135	      0.13560355	      3.59426453	     -6.15334646	     -7.32934746	     -1.08497647	     -5.89180666	      0.45786743	     -7.74520160	     -5.28987091	     -8.55400848	     31.20944219	     99.82320841	    -10.32233177	     -3.57923581	    -26.59279543	     37.15445547	     99.61719710
      0.82000000	     -1.75059970	      5.16213571	     -6.82369745	      0.89710862	      0.93339403	     -0.22707996	     16.48818899	     -2.81049953	      6.83625037	     66.81658321	      1.16616937	     -3.84642828	    -17.63602908	     -7.33109937	      6.92356833	     10.48058338	      1.09537775	      7.33105174	      0.12795099	      4.02819145	     -6.00460962	     -7.33109937	     -1.23809713	     -5.55029424	     -0.38237983	     -8.26133258	     -5.37712139	     -8.94498949	     30.82992589	     99.76733069	     -9.54405361	     -4.04574066	    -26.01698719	     38.04272812	     99.73189154
      0.83000000	     -1.87056104	      4.87565689	     -6.52825413	      0.90772401	      0.93401544	     -0.22761980	     18.23509016	     -2.27231402	      6.95365948	     66.52138023	      1.16101711	     -2.43264980	    -18.41626838	     -7.33268775	      6.04308526	     10.31996237	      1.50008239	      6.91215424	      0.12063985	      4.44407628	     -5.88323498	     -7.33268775	     -1.41293938	     -5.17945601	     -1.18482521	     -8.80158446	     -5.47972074	     -9.42096718	     30.50962107	     99.70057047	     -8.75567046	     -4.52337111	    -25.42113680	     38.92843874	     99.86039915
      0.84000000	     -1.91630742	      4.62589049	     -6.20417120	      0.91828498	      0.93455411	     -0.22818162	     19.83838952	     -1.82581971	      7.05720790	     65.93548200	      1.15079125	     -0.77842607	    -18.68777132	     -7.34816976	      5.08714671	     10.19889857	      1.98970701	      6.49581490	      0.11337336	      4.97580634	     -5.76994377	     -7.34816976	     -1.66363915	     -4.80543652	     -1.54200078	     -9.77951823	     -5.19423572	    -12.17264636	     31.07058886	     99.56485510	     -7.67681647	     -5.32903177	    -23.42355218	     39.47609821	     99.97557029
      0.85000000	     -2.05542572	      4.29555003	     -5.92827285	      0.92882853	      0.93494530	     -0.22862609	     21.44130483	     -1.23763451	      7.22266854	     64.95665987	      1.13370759	      0.25904164	    -19.54589721	     -7.34959860	      4.28006194	      9.95178456	      2.29094002	      6.16580715	      0.10761364	      5.35774299	     -5.66639820	     -7.34959860	     -1.77216845	     -4.39107555	     -2.20801072	    -10.36087490	     -5.35843960	    -12.47131062	     30.76350372	     99.53413784	     -6.77640922	     -5.75000499	    -23.18695881	     40.30164377	    100.06943903
      0.86000000	     -2.16892353	      3.98115688	     -5.64133634	      0.93937679	      0.93524240	     -0.22901153	     22.91175167	     -0.69518993	      7.38405367	     63.62782676	      1.11051507	      1.12250391	    -20.30180636	     -7.35089430	      3.46440277	      9.71592462	      2.62012955	      5.88573063	      0.10272538	      5.82988625	     -5.55158843	     -7.35089430	     -1.88184268	     -3.99750351	     -2.84577332	    -10.93007970	     -5.48191907	    -12.87548785	     30.47278847	     99.48032371	     -5.90069496	     -6.19928558	    -22.90025550	     41.16862934	    100.17677442
